<?xml version="1.0" encoding="utf-8"?>
<!-- Generator: Adobe Illustrator 18.1.1, SVG Export Plug-In . SVG Version: 6.00 Build 0)  -->
<svg version="1.1" id="Layer_1" xmlns="http://www.w3.org/2000/svg" xmlns:xlink="http://www.w3.org/1999/xlink" x="0px" y="0px"
	 width="340px" height="340px" viewBox="0 0 340 340" enable-background="new 0 0 340 340" xml:space="preserve">
<g>
	<g>
		<path fill="#FFFFFF" d="M170,340c93.9,0,170-76.1,170-170S263.9,0,170,0S0,76.1,0,170S76.1,340,170,340"/>
	</g>
	<g>
		<defs>
			<rect id="SVGID_1_" x="71.9" y="54.4" width="194.8" height="224.4"/>
		</defs>
		<clipPath id="SVGID_2_">
			<use xlink:href="#SVGID_1_"  overflow="visible"/>
		</clipPath>
		<path clip-path="url(#SVGID_2_)" fill="#2F3490" d="M133.7,243.6v-0.5c0-0.3-0.2-0.5-0.5-0.5h-11.7v-9.3h10.1
			c0.3,0,0.5-0.2,0.5-0.5v-0.5c0-0.3-0.2-0.5-0.5-0.5h-10.1V223h11.7c0.3,0,0.5-0.2,0.5-0.5V222c0-0.3-0.2-0.5-0.5-0.5h-12.9
			c-0.3,0-0.5,0.2-0.5,0.5v21.7c0,0.3,0.2,0.5,0.5,0.5h12.9C133.5,244.1,133.7,243.9,133.7,243.6"/>
		<path clip-path="url(#SVGID_2_)" fill="#2F3490" d="M154.2,243.9c0.1,0.1,0.3,0.2,0.5,0.2h1c0.2,0,0.3-0.1,0.4-0.2
			c0.1-0.1,0-0.3-0.1-0.4l-7-11l6.6-10.5c0.1-0.2,0.1-0.3,0-0.4c-0.1-0.1-0.2-0.2-0.4-0.2h-1c-0.2,0-0.4,0.1-0.5,0.2L148,231
			l-5.8-9.3c-0.1-0.1-0.3-0.2-0.5-0.2h-1c-0.2,0-0.3,0.1-0.4,0.2c-0.1,0.1,0,0.3,0,0.4l6.6,10.5l-6.9,11c-0.1,0.2-0.1,0.3-0.1,0.4
			c0.1,0.1,0.2,0.2,0.4,0.2h1c0.2,0,0.4-0.1,0.5-0.2l6.1-9.8L154.2,243.9z"/>
		<path clip-path="url(#SVGID_2_)" fill="#2F3490" d="M167,243.6c0,0.3,0.2,0.5,0.5,0.5h0.6c0.4,0,0.6-0.3,0.6-0.5V223h6.1
			c0.3,0,0.5-0.2,0.5-0.5V222c0-0.3-0.2-0.5-0.5-0.5H161c-0.3,0-0.5,0.2-0.5,0.5v0.5c0,0.4,0.2,0.6,0.5,0.6h6V243.6z"/>
		<path clip-path="url(#SVGID_2_)" fill="#2F3490" d="M190.6,235.4l4.6,8.4c0.1,0.2,0.3,0.3,0.5,0.3h1c0.2,0,0.3-0.1,0.4-0.2
			c0.1-0.1,0.1-0.4,0-0.5l-4.6-8.2c3.1-0.9,5.3-3.7,5.3-6.8c0-3.9-3.2-7-7.3-7h-8c-0.3,0-0.5,0.2-0.5,0.5v21.7
			c0,0.3,0.2,0.5,0.5,0.5h0.6c0.4,0,0.6-0.3,0.6-0.5v-8.2h5.8C189.9,235.5,190.2,235.5,190.6,235.4 M190.4,233.9h-6.7v-10.8h6.6
			c3.1,0,5.6,2.4,5.6,5.3C196,231.5,193.5,233.9,190.4,233.9"/>
		<path clip-path="url(#SVGID_2_)" fill="#2F3490" d="M213.8,221.3c-0.1-0.2-0.3-0.3-0.5-0.3h-0.1c-0.2,0-0.4,0.1-0.5,0.3l-9.9,22.4
			c-0.1,0.2-0.1,0.3,0,0.4c0,0.1,0.1,0.1,0.3,0.1h0.9c0.3,0,0.5-0.2,0.5-0.3l2.5-5.9h12.1l2.6,5.9c0.1,0.2,0.3,0.3,0.5,0.3h0.8
			c0.2,0,0.3,0,0.4-0.1c0.1-0.1,0-0.3,0-0.4L213.8,221.3z M218.7,236.5h-10.8l5.5-12.7L218.7,236.5z"/>
		<path clip-path="url(#SVGID_2_)" fill="#2F3490" d="M79,266.1c-3.3-1.1-5.3-2.3-5.3-4.9c0-2,1.7-4.2,5.3-4.2
			c2.4,0,4.4,1.3,4.7,1.5c0.1,0.1,0.2,0.1,0.4,0.1c0.2,0,0.4-0.2,0.5-0.3c0.1-0.1,0.2-0.3,0.3-0.4c0.2-0.3,0.1-0.6-0.2-0.8
			c0,0-2.4-1.7-5.6-1.7c-5.2,0-7,3.5-7,5.8c0,3.9,2.7,5.2,6.3,6.4c4,1.4,6.2,2.6,6.2,5.4c0,2.3-2.4,4.2-5.3,4.2
			c-2.9,0-5-1.7-5.9-2.5c-0.3-0.2-0.5-0.2-0.8,0.1l-0.3,0.4c-0.3,0.4-0.1,0.7,0.1,0.8c0.5,0.4,3.1,2.7,6.9,2.7
			c3.8,0,7.1-2.7,7.1-5.8C86.3,269.3,83.6,267.7,79,266.1"/>
		<path clip-path="url(#SVGID_2_)" fill="#2F3490" d="M105.4,255.8H91.5c-0.3,0-0.5,0.2-0.5,0.5v0.5c0,0.4,0.2,0.6,0.5,0.6h6V278
			c0,0.3,0.2,0.5,0.5,0.5h0.6c0.4,0,0.6-0.3,0.6-0.5v-20.6h6.1c0.3,0,0.5-0.2,0.5-0.5v-0.5C105.9,256,105.6,255.8,105.4,255.8"/>
		<path clip-path="url(#SVGID_2_)" fill="#2F3490" d="M113.8,255.8h-0.7c-0.3,0-0.5,0.2-0.5,0.5V278c0,0.3,0.2,0.5,0.5,0.5h0.7
			c0.3,0,0.5-0.2,0.5-0.5v-21.6C114.3,256,114.1,255.8,113.8,255.8"/>
		<path clip-path="url(#SVGID_2_)" fill="#2F3490" d="M137.5,255.8h-12.9c-0.3,0-0.5,0.2-0.5,0.5V278c0,0.3,0.2,0.5,0.5,0.5h0.6
			c0.4,0,0.6-0.3,0.6-0.5l0-9.5h10.1c0.1,0,0.3,0,0.3-0.1c0.2-0.2,0.2-0.5,0.2-0.8l0-0.1c0-0.3-0.2-0.5-0.5-0.5h-10.1v-9.6h11.7
			c0.3,0,0.5-0.2,0.5-0.5v-0.5C138,256,137.8,255.8,137.5,255.8"/>
		<path clip-path="url(#SVGID_2_)" fill="#2F3490" d="M156.9,255.8h-13.8c-0.3,0-0.5,0.2-0.5,0.5v0.5c0,0.4,0.2,0.6,0.5,0.6h6V278
			c0,0.3,0.2,0.5,0.5,0.5h0.6c0.4,0,0.6-0.3,0.6-0.5v-20.6h6.1c0.3,0,0.5-0.2,0.5-0.5v-0.5C157.4,256,157.2,255.8,156.9,255.8"/>
		<path clip-path="url(#SVGID_2_)" fill="#2F3490" d="M177.5,255.8h-12.9c-0.3,0-0.5,0.2-0.5,0.5V278c0,0.3,0.2,0.5,0.5,0.5h12.9
			c0.3,0,0.5-0.2,0.5-0.5v-0.5c0-0.3-0.2-0.5-0.5-0.5h-11.7v-9.3h10.1c0.3,0,0.5-0.2,0.5-0.5v-0.5c0-0.3-0.2-0.5-0.5-0.5h-10.1v-8.7
			h11.7c0.3,0,0.5-0.2,0.5-0.5v-0.5C178,256,177.8,255.8,177.5,255.8"/>
		<path clip-path="url(#SVGID_2_)" fill="#2F3490" d="M198.4,276.9h-10.1v-20.6c0-0.3-0.2-0.5-0.5-0.5h-0.7c-0.3,0-0.5,0.2-0.5,0.5
			V278c0,0.3,0.2,0.5,0.5,0.5h11.3c0.3,0,0.5-0.2,0.5-0.5v-0.6C198.9,277.2,198.9,276.9,198.4,276.9"/>
		<path clip-path="url(#SVGID_2_)" fill="#2F3490" d="M211,266.1c-3.3-1.1-5.3-2.3-5.3-4.9c0-2,1.7-4.2,5.3-4.2
			c2.4,0,4.4,1.3,4.7,1.5c0.1,0.1,0.2,0.1,0.4,0.1c0.2,0,0.4-0.2,0.5-0.3c0.1-0.1,0.2-0.3,0.3-0.4c0.2-0.3,0.1-0.6-0.2-0.8
			c0,0-2.4-1.7-5.6-1.7c-5.2,0-7,3.5-7,5.8c0,3.9,2.7,5.2,6.3,6.4c4,1.4,6.2,2.6,6.2,5.4c0,2.3-2.4,4.2-5.3,4.2
			c-2.9,0-5-1.7-5.9-2.5c-0.3-0.2-0.5-0.2-0.8,0.1l-0.3,0.4c-0.3,0.4-0.1,0.7,0.1,0.8c0.5,0.4,3.1,2.7,6.9,2.7
			c3.8,0,7.1-2.7,7.1-5.8C218.2,269.3,215.6,267.7,211,266.1"/>
		<path clip-path="url(#SVGID_2_)" fill="#2F3490" d="M239.5,255.8h-12.9c-0.3,0-0.5,0.2-0.5,0.5V278c0,0.3,0.2,0.5,0.5,0.5h12.9
			c0.3,0,0.5-0.2,0.5-0.5v-0.5c0-0.3-0.2-0.5-0.5-0.5h-11.7v-9.3h10.1c0.3,0,0.5-0.2,0.5-0.5v-0.5c0-0.3-0.2-0.5-0.5-0.5h-10.1v-8.7
			h11.7c0.3,0,0.5-0.2,0.5-0.5v-0.5C240,256,239.8,255.8,239.5,255.8"/>
		<path clip-path="url(#SVGID_2_)" fill="#2F3490" d="M266.2,255.8h-0.6c-0.3,0-0.5,0.2-0.5,0.5v19.1l-15.3-19.9l0,0h-0.6
			c-0.3,0-0.6,0.2-0.6,0.5v22c0,0.3,0.2,0.5,0.5,0.5h0.6c0.3,0,0.5-0.2,0.5-0.5v-19.3c15.2,20.1,15.4,20.1,15.5,20.1h0.4
			c0.3,0,0.6-0.2,0.6-0.5v-22C266.7,256,266.5,255.8,266.2,255.8"/>
		<path clip-path="url(#SVGID_2_)" fill="#2F3490" d="M187.9,202.3h-37c-0.4,0-0.7-0.3-0.7-0.7c0-0.4,0.3-0.7,0.7-0.7h37
			c0.4,0,0.7,0.3,0.7,0.7C188.6,202,188.3,202.3,187.9,202.3"/>
		<path clip-path="url(#SVGID_2_)" fill="#4691B7" d="M180,97.4c7.4,2.8,19.6,4.4,24.5,2.4c-7.5-12.1-23.9-37.1-26.4-39.9
			c-0.6-0.7-1.4-1-2.1-0.6c-0.5,0.3-0.7,0.8-0.7,1.4c0,0.1,0,0.4,0,0.4C175.6,64.4,180.1,88.5,180,97.4"/>
		<path clip-path="url(#SVGID_2_)" fill="#2F3490" d="M235.2,87.9c-0.1,0-0.1,0-0.2,0c0,0-3.3,0.9-5.6,1.5c-0.9,0.3-1.9,0.1-2.3-0.3
			c-2.8-2.5-6.3-3.7-10.4-3.1c-5.5,0.9-9.3,5.2-9.8,9.7c0,0.1-0.2,1.6-0.2,1.7c-0.8,5.3-19.5,3.1-28.2-0.8
			c-10.9-4.8-35.5-21.5-52.1-32.4c-8.4-5.5-13.6-9.4-16.3-9.8c-1-0.1-1.8,0.4-1.8,1.3c0,0.7,0.4,1.8,1.5,3.3
			c6.6,8.8,35.1,39.7,29.8,41.7c-5.2,2-10.3,2.2-5.4,5c20.8,11.8,31.8,34.7,15,49.6c-3.2,2.9-14.6,11.2-27.4,18.3
			c-17.3,9.5-35.5,16.6-36.9,18.1c-0.2,0.2-0.3,0.4-0.3,0.7c0,0.6,0.5,1,1.1,1c0.5,0,1.3-0.2,1.9-0.4c0,0,21.5-6.9,39.1-12.3
			c40.3-12.5,51.4-10.5,51.4-10.5c0.7,0.1,1.9,0.3,2.3,1.4c0.9,2.4-2.3,6.8-2.5,7.1c-3.5,5.2-4.9,9.7-5.5,11.9
			c0,0.1-0.1,0.5-0.1,0.7c-0.1,0.4,0,0.7,0,0.7c0.1,0.6,0.4,1,1,1c0.5,0,0.8-0.4,1-0.8c0.1-0.2,1.9-5.7,5.5-11.1
			c2.5-3.8,6.1-7.5,10.2-10.1c9.3-5.9,21.1-14.5,21.1-14.5c23.2-17.3,23.9-46.5,21.1-56.5c-0.1-0.4-0.1-0.9-0.2-1.2
			c-0.1-1.6,0.3-3.2,1.3-5c1.1-2,2.7-4.3,2.7-4.3c0.2-0.3,0.2-0.5,0.2-0.7v0C236,88.3,235.6,87.9,235.2,87.9"/>
	</g>
</g>
</svg>
